<svg xmlns="http://www.w3.org/2000/svg" viewBox="0 0 1600 360" preserveAspectRatio="none" role="img" aria-label="Abstract header background">
  <defs>
    <!-- Theme variables (customizable from page CSS) -->
    <style>
      :root{
        --bg-1:#0b0e14;          /* deep background */
        --bg-2:#111827;          /* subtle gradient end */
        --accent:#f5b759;        /* gold accent */
        --accent-2:#1e88e5;      /* cool secondary */
        --grid:rgba(255,255,255,.06);
      }
      /* make strokes crisp on the grid */
      .grid { shape-rendering: crispEdges; }
    </style>

    <!-- Background gradient -->
    <linearGradient id="bg-grad" x1="0" y1="0" x2="1" y2="1">
      <stop offset="0"  stop-color="var(--bg-1)"/>
      <stop offset="1"  stop-color="var(--bg-2)"/>
    </linearGradient>

    <!-- Soft radial glow (accent) -->
    <radialGradient id="glow" cx="70%" cy="25%" r="60%">
      <stop offset="0"   stop-color="var(--accent)" stop-opacity=".30"/>
      <stop offset=".45" stop-color="var(--accent)" stop-opacity=".08"/>
      <stop offset="1"   stop-color="var(--accent)" stop-opacity="0"/>
    </radialGradient>

    <!-- Secondary cool glow -->
    <radialGradient id="glow2" cx="20%" cy="15%" r="60%">
      <stop offset="0"   stop-color="var(--accent-2)" stop-opacity=".20"/>
      <stop offset=".45" stop-color="var(--accent-2)" stop-opacity=".06"/>
      <stop offset="1"   stop-color="var(--accent-2)" stop-opacity="0"/>
    </radialGradient>

    <!-- Fine grid pattern -->
    <pattern id="grid" width="32" height="32" patternUnits="userSpaceOnUse">
      <path d="M32 0V32M0 32H32" stroke="var(--grid)" stroke-width="1"/>
    </pattern>

    <!-- Film grain -->
    <filter id="grain">
      <feTurbulence type="fractalNoise" baseFrequency="0.9" numOctaves="2" seed="7" result="n"/>
      <feColorMatrix type="saturate" values="0" in="n" result="gn"/>
      <feComponentTransfer in="gn">
        <feFuncA type="table" tableValues="0 0.18"/>
      </feComponentTransfer>
    </filter>
  </defs>

  <!-- Base -->
  <rect width="1600" height="360" fill="url(#bg-grad)"/>

  <!-- Accent glows -->
  <rect width="1600" height="360" fill="url(#glow)"/>
  <rect width="1600" height="360" fill="url(#glow2)"/>

  <!-- Layered waves (subtle, blend over background) -->
  <g opacity=".35">
    <path d="M0,250 C200,230 300,300 500,280 700,260 900,320 1100,300 1300,280 1450,300 1600,290 L1600,360 L0,360 Z"
          fill="var(--accent)"/>
  </g>
  <g opacity=".22">
    <path d="M0,270 C180,255 330,305 520,292 760,275 920,325 1160,310 1360,300 1480,315 1600,310 L1600,360 L0,360 Z"
          fill="var(--accent-2)"/>
  </g>

  <!-- Subtle diagonal accent (right) -->
  <g opacity=".10">
    <path d="M1600 0 L1600 140 L1440 0 Z" fill="white"/>
  </g>

  <!-- Grid overlay -->
  <rect width="1600" height="360" fill="url(#grid)" class="grid"/>

  <!-- Gentle bottom fade (keep text legible over header) -->
  <linearGradient id="fade-bot" x1="0" y1="0" x2="0" y2="1">
    <stop offset="0" stop-color="#000" stop-opacity="0"/>
    <stop offset="1" stop-color="#000" stop-opacity=".25"/>
  </linearGradient>
  <rect width="1600" height="360" fill="url(#fade-bot)"/>

  <!-- Film grain on top -->
  <rect width="1600" height="360" filter="url(#grain)" opacity=".08"/>
</svg>
