<svg xmlns="http://www.w3.org/2000/svg"
     xmlns:xlink="http://www.w3.org/1999/xlink"
     viewBox="0 0 1200 420"
     style="max-width:100%; height:auto; background:transparent"
     role="img" aria-label="Subway-style roadmap (vibrant)">

  <style>
    .line { fill:none; stroke-width:12; stroke-linecap:round; }
    .stop { stroke:#111; stroke-width:2; }
    .label { font:600 16px/1.2 system-ui, -apple-system, Segoe UI, Roboto, Arial; fill:#fff; }
    .muted { font:500 13px/1.2 system-ui, -apple-system, Segoe UI, Roboto, Arial; fill:#ddd; }
  </style>

  <style>
    .label, .muted {
      paint-order: stroke;            /* draw stroke under fill */
      stroke: rgba(17,17,17,.85);     /* dark halo */
      stroke-width: 4;                /* thickness of halo */
      stroke-linejoin: round;
    }
  </style>


  <!-- Main line (vibrant blue) -->
  <path class="line" stroke="#1E88E5" d="M80,300 L1120,300" />

  <!-- Branch to Performance Case Studies (vibrant green) -->
  <path class="line" stroke="#00C853" d="M380,300 C420,300 420,200 460,200 L800,200" />

  <!-- Branch to Visualization (bright orange) -->
  <path class="line" stroke="#FF6D00" d="M880,300 C920,300 920,120 960,120 L1120,120" />

  <!-- Stops on main line -->
  <circle cx="140" cy="300" r="10" fill="#fff" class="stop"/>
  <text x="140" y="330" text-anchor="middle" class="label">SQL Server</text>
  <text x="140" y="350" text-anchor="middle" class="muted">Foundation</text>

  <circle cx="260" cy="300" r="10" fill="#fff" class="stop"/>
  <text x="260" y="330" text-anchor="middle" class="label">Director (Hands-On)</text>
  <text x="260" y="350" text-anchor="middle" class="muted">Leadership</text>

  <a xlink:href="/projects/postgres-indexing/">
    <circle cx="380" cy="300" r="10" fill="#fff" class="stop"/>
  </a>
  <text x="380" y="330" text-anchor="middle" class="label">PostgreSQL</text>
  <text x="380" y="350" text-anchor="middle" class="muted">Setup &amp; Indexing</text>

  <a xlink:href="/projects/nyc-taxi/" target="_top">
      <circle cx="500" cy="300" r="10" fill="#fff" class="stop"/>
  </a>
  <text x="500" y="330" text-anchor="middle" class="label">NYC Taxi</text>
  <text x="500" y="350" text-anchor="middle" class="muted">Large Data</text>

  <a xlink:href="/projects/airflow-etl/">
    <circle cx="620" cy="300" r="10" fill="#fff" class="stop"/>
  </a>
  <text x="620" y="330" text-anchor="middle" class="label">Airflow</text>
  <text x="620" y="350" text-anchor="middle" class="muted">Orchestration</text>

  <a xlink:href="/projects/databricks-notebooks/">
    <circle cx="740" cy="300" r="10" fill="#fff" class="stop"/>
  </a>
  <text x="740" y="330" text-anchor="middle" class="label">Databricks</text>
  <text x="740" y="350" text-anchor="middle" class="muted">Analytics</text>

  <a xlink:href="/projects/end-to-end/">
    <circle cx="860" cy="300" r="10" fill="#fff" class="stop"/>
  </a>
  <text x="860" y="330" text-anchor="middle" class="label">End-to-End</text>
  <text x="860" y="350" text-anchor="middle" class="muted">Pipeline</text>

  <!-- Branch stops with padded labels -->
  <a xlink:href="/projects/sqlserver-performance/">
    <circle cx="580" cy="200" r="10" fill="#fff" class="stop"/>
  </a>
  <text x="580" y="150" text-anchor="middle" class="label">Performance</text>
  <text x="580" y="170" text-anchor="middle" class="muted">Case Studies</text>

  <a xlink:href="/projects/powerbi-dashboards/">
    <circle cx="1000" cy="120" r="10" fill="#fff" class="stop"/>
  </a>
  <text x="1000" y="65" text-anchor="middle" class="label">Power BI</text>
  <text x="1000" y="85" text-anchor="middle" class="muted">Visualization</text>

  <!-- Branch to Azure (violet) -->
  <path class="line" stroke="#7E57C2" d="M620,300 C660,300 660,230 700,230 L980,230" />

  <!-- Azure branch stops -->
  <a xlink:href="/projects/azure-sql-mi/">
    <circle cx="700" cy="230" r="10" fill="#fff" class="stop"/>
  </a>
  <text x="700" y="200" text-anchor="middle" class="label">Azure SQL MI</text>
  <text x="700" y="220" text-anchor="middle" class="muted">Managed Instance</text>

  <a xlink:href="/projects/azure-synapse/">
    <circle cx="820" cy="230" r="10" fill="#fff" class="stop"/>
  </a>
  <text x="820" y="200" text-anchor="middle" class="label">Synapse</text>
  <text x="820" y="220" text-anchor="middle" class="muted">DW / Pipelines</text>

  <a xlink:href="/projects/azure-devops/">
    <circle cx="940" cy="230" r="10" fill="#fff" class="stop"/>
  </a>
  <text x="940" y="200" text-anchor="middle" class="label">DevOps</text>
  <text x="940" y="220" text-anchor="middle" class="muted">Pipelines &amp; CI/CD</text>

  <!-- Branch to AWS (gold) -->
  <path class="line" stroke="#FDD835" d="M740,300 C780,300 780,360 820,360 L1100,360" />

  <!-- AWS branch stops -->
  <a xlink:href="/projects/aws-rds-sqlserver/">
    <circle cx="820" cy="360" r="10" fill="#fff" class="stop"/>
  </a>
  <text x="820" y="390" text-anchor="middle" class="label">RDS (SQL Server)</text>
  <text x="820" y="410" text-anchor="middle" class="muted">Managed DB</text>

  <a xlink:href="/projects/aws-glue/">
    <circle cx="940" cy="360" r="10" fill="#fff" class="stop"/>
  </a>
  <text x="940" y="390" text-anchor="middle" class="label">Glue</text>
  <text x="940" y="410" text-anchor="middle" class="muted">ETL / Catalog</text>

  <a xlink:href="/projects/aws-redshift/">
    <circle cx="1060" cy="360" r="10" fill="#fff" class="stop"/>
  </a>
  <text x="1060" y="390" text-anchor="middle" class="label">Redshift</text>
  <text x="1060" y="410" text-anchor="middle" class="muted">Analytics</text>
</svg>