<svg xmlns="http://www.w3.org/2000/svg"
     xmlns:xlink="http://www.w3.org/1999/xlink"
     viewBox="0 0 1200 420"
     style="max-width:100%; height:auto; background:transparent"
     role="img" aria-label="Subway-style roadmap (vibrant)">

  <style>
    :root {
      --blue:#1E88E5; --green:#00C853; --orange:#FF6D00; --violet:#7E57C2; --gold:#FDD835;
    }
    .line { fill:none; stroke-width:12; stroke-linecap:round; }
    .stop { stroke:#111; stroke-width:2; }
    .label { font:600 16px/1.2 system-ui,-apple-system,Segoe UI,Roboto,Arial; fill:#fff; }
    .muted { font:500 13px/1.2 system-ui,-apple-system,Segoe UI,Roboto,Arial; fill:#ddd; }

    /* Glow only (keeps text pure white) */
    .label, .muted { stroke-width:0; filter:url(#text-pop); }

    /* Optional helper for tight-above groups */
    .tight-above .label, .tight-above .muted { dominant-baseline: central; }

    /* Placard */
    a:focus .placard rect, a:hover .placard rect { stroke:#fff; stroke-width:2; }
    .stop-group text { pointer-events:none; } /* keeps the whole group clickable */
  </style>

  <defs>
    <filter id="text-pop" x="-40%" y="-40%" width="180%" height="180%">
      <feDropShadow dx="0" dy="0" stdDeviation="2.4"
                    flood-color="#000" flood-opacity="0.9"/>
    </filter>
  </defs>

  <g id="lines">   <!-- all paths go here --> 
    <!-- Main line (vibrant blue) -->
    <path class="line" stroke="#1E88E5" d="M80,300 L1120,300" />

    <!-- Branch to Performance Case Studies (vibrant green) -->
    <path class="line" stroke="#00C853" d="M336,300 C376,300 440,165 580,165 L900,165" />
    <path class="line" stroke="#00C853" d="M446,300 C486,300 520,165 580,165" />

    <!-- Branch to Visualization (bright orange) -->
    <path class="line" stroke="#FF6D00" d="M880,300 C920,300 920,120 960,120 L1120,120" />

      <!-- Branch to Azure (violet) -->
    <path class="line" stroke="#7E57C2" d="M620,300 C660,300 660,230 700,230 L980,230" />

      <!-- Branch to AWS (gold) -->
    <path class="line" stroke="#FDD835" d="M740,300 C780,300 780,360 820,360 L1120,360" />
  </g>

  <!-- Stops on main line -->
  <circle cx="100" cy="300" r="10" fill="#fff" class="stop"/>
  <text x="140" y="330" text-anchor="middle" class="label">Raw Data</text>
  <text x="140" y="350" text-anchor="middle" class="muted">Parquet</text>

  <circle cx="210" cy="300" r="10" fill="#fff" class="stop"/>
  <text x="210" y="255" text-anchor="middle" class="label">Validation &amp; Conversion</text>
  <text x="210" y="275" text-anchor="middle" class="muted">PSV</text>

  <a xlink:href="/projects/sqlserver/">
    <g class="stop-group">
      <circle cx="320" cy="300" r="10" fill="#fff" class="stop"/>
      <text x="320" y="330" text-anchor="middle" class="label">SQL Server</text>
      <text x="320" y="350" text-anchor="middle" class="muted">Setup &amp; Indexing</text>
    </g>
  </a>

  <circle cx="430" cy="300" r="10" fill="#fff" class="stop"/>
  <text x="430" y="255" text-anchor="middle" class="label">PostgreSQL</text>
  <text x="430" y="275" text-anchor="middle" class="muted">Setup &amp; Indexing</text>

  <!-- NYC Taxi as a placard pinned to the baseline -->
  <a xlink:href="{% post_url 2025-08-27-nyc-taxi %}" target="_top" aria-label="Multi-billion-row ingest">
    <g class="stop-group placard" transform="translate(530,300)">
      <!-- leader pin into the blue baseline -->
      <line x1="0" y1="0" x2="0" y2="14" stroke="#1E88E5" stroke-width="8" stroke-linecap="round"/>

      <!-- rounded label box (above the line) -->
      <rect x="-110" y="14" width="220" height="48" rx="10" ry="10"
            fill="rgba(0,0,0,.78)" stroke="rgba(255,255,255,.15)" stroke-width="1"/>
        <rect x="-110" y="14" width="220" height="48" rx="10" ry="10"/>
        <text x="0" y="34" text-anchor="middle" class="label">NYC Taxi</text>
        <text x="0" y="52" text-anchor="middle" class="muted">Multi-billion-row ingest</text>
    </g>
  </a>

  <text x="620" y="255" text-anchor="middle" class="label">Airflow</text>
  <text x="620" y="275" text-anchor="middle" class="muted">Orchestration</text>

  <circle cx="740" cy="300" r="10" fill="#fff" class="stop"/>
  <text x="740" y="330" text-anchor="middle" class="label">Databricks</text>
  <text x="740" y="350" text-anchor="middle" class="muted">Analytics</text>

  <circle cx="860" cy="300" r="10" fill="#fff" class="stop"/>
  <text x="860" y="260" text-anchor="middle" class="label">End-to-End</text>
  <text x="860" y="276" text-anchor="middle" class="muted">Pipeline</text>

  <!-- Branch stops with padded labels -->
  <circle cx="580" cy="165" r="10" fill="#fff" class="stop"/>
  <text x="580" y="122" text-anchor="middle" class="label">Performance</text>
  <text x="580" y="142" text-anchor="middle" class="muted">Case Studies</text>

  <circle cx="1000" cy="120" r="10" fill="#fff" class="stop"/>
  <text x="1000" y="80"  text-anchor="middle" class="label">Power BI</text>
  <text x="1000" y="96" text-anchor="middle" class="muted">Visualization</text>

  <circle cx="620" cy="300" r="10" fill="#fff" class="stop"/>

  <!-- Azure branch stops -->
  <circle cx="700" cy="230" r="10" fill="#fff" class="stop"/>
  <g class="tight-above" transform="translate(700,230)">
    <text x="0" y="-46" text-anchor="middle" class="label">Azure SQL MI</text>
    <text x="0" y="-24" text-anchor="middle" class="muted">Managed Instance</text>
  </g>

  <circle cx="820" cy="230" r="10" fill="#fff" class="stop"/>
  <g class="tight-above" transform="translate(820,230)">
    <text x="0" y="-46" text-anchor="middle" class="label">Synapse</text>
    <text x="0" y="-24" text-anchor="middle" class="muted">DW / Pipelines</text>
  </g>

  <circle cx="940" cy="230" r="10" fill="#fff" class="stop"/>
  <g class="tight-above" transform="translate(940,230)">
    <text x="0" y="-46" text-anchor="middle" class="label">DevOps</text>
    <text x="0" y="-24" text-anchor="middle" class="muted">Pipelines &amp; CI/CD</text>
  </g>

  <!-- AWS branch stops -->
  <circle cx="820" cy="360" r="10" fill="#fff" class="stop"/>
  <text x="820" y="390" text-anchor="middle" class="label">RDS (SQL Server)</text>
  <text x="820" y="410" text-anchor="middle" class="muted">Managed DB</text>

  <circle cx="940" cy="360" r="10" fill="#fff" class="stop"/>
  <text x="940" y="390" text-anchor="middle" class="label">Glue</text>
  <text x="940" y="410" text-anchor="middle" class="muted">ETL / Catalog</text>

  <circle cx="1060" cy="360" r="10" fill="#fff" class="stop"/>
  <text x="1060" y="390" text-anchor="middle" class="label">Redshift</text>
  <text x="1060" y="410" text-anchor="middle" class="muted">Analytics</text>
</svg>