<?xml version="1.0" encoding="utf-8" standalone="no"?>
<!DOCTYPE svg PUBLIC "-//W3C//DTD SVG 1.1//EN"
  "http://www.w3.org/Graphics/SVG/1.1/DTD/svg11.dtd">
<svg xmlns:xlink="http://www.w3.org/1999/xlink" width="1040pt" height="420pt" viewBox="0 0 1040 420" xmlns="http://www.w3.org/2000/svg" version="1.1">
 <metadata>
  <rdf:RDF xmlns:dc="http://purl.org/dc/elements/1.1/" xmlns:cc="http://creativecommons.org/ns#" xmlns:rdf="http://www.w3.org/1999/02/22-rdf-syntax-ns#">
   <cc:Work>
    <dc:type rdf:resource="http://purl.org/dc/dcmitype/StillImage"/>
    <dc:date>2025-08-21T22:19:43.725281</dc:date>
    <dc:format>image/svg+xml</dc:format>
    <dc:creator>
     <cc:Agent>
      <dc:title>Matplotlib v3.6.3, https://matplotlib.org/</dc:title>
     </cc:Agent>
    </dc:creator>
   </cc:Work>
  </rdf:RDF>
 </metadata>

  <title id="chartTitle">Career Roles by Year, 1997–2025</title>
  <desc id="chartDesc">
  Dev continues through 2025; DBA and ETL drop to zero after 2021; Business-data Analysis varies over time.
  </desc>

  <style>
    .axis{stroke:rgba(255,255,255,.25);stroke-width:1}
    .tick{font-size:12px;font-family:system-ui,-apple-system,Segoe UI,Roboto,Arial;fill:var(--color-text,#bbb)}
    .legend{font-size:13px;font-weight:500;font-family:system-ui,-apple-system,Segoe UI,Roboto,Arial;fill:var(--color-text,#ddd)}
    .note{font-size:12px;font-family:system-ui,-apple-system,Segoe UI,Roboto,Arial;fill:var(--color-text,#bbb)}
    .analysisFill{fill:var(--color-info,#ffb347);opacity:.32}
    .devFill{fill:var(--color-accent-alt,#059c32);opacity:.35}
    .dbaFill{fill:var(--color-accent,#1E88E5);opacity:.45}
    .etlFill{fill:var(--color-warning,#fb8107);opacity:.40}
    .analysisLine{stroke:var(--color-info,#ffb347);stroke-width:2.2;fill:none}
    .devLine{stroke:var(--color-accent-alt,#059c32);stroke-width:2.5;fill:none}
    .dbaLine{stroke:var(--color-accent,#1E88E5);stroke-width:2.5;fill:none}
    .etlLine{stroke:var(--color-warning,#fb8107);stroke-width:2.5;fill:none}
    .devDash{ stroke-dasharray:6 4; }
    .axisTitle { font-weight:700; }
  </style>

  <!-- Frame + X axis -->
  <rect x="60" y="30" width="920" height="310" fill="none" stroke="rgba(255,255,255,.12)"/>
  <line x1="60" y1="340" x2="980" y2="340" class="axis"/>
<g class="yearTicks">
  <text x="70"  y="360" class="tick" text-anchor="middle">1997</text>
  <text x="265" y="360" class="tick" text-anchor="middle">2003</text>
  <text x="428" y="360" class="tick" text-anchor="middle">2008</text>
  <text x="590" y="360" class="tick" text-anchor="middle">2013</text>
  <text x="753" y="360" class="tick" text-anchor="middle">2018</text>
  <text x="850" y="360" class="tick" text-anchor="middle">2021</text>
  <text x="980" y="360" class="tick" text-anchor="end">2025</text>
</g>
<g class="yearMarks" stroke="rgba(255,255,255,.4)" stroke-width="1">
  <!-- every year tick from 1997 (x=70) to 2025 (x=980) -->
  <line x1="70"  y1="340" x2="70"  y2="345"/>
  <line x1="103" y1="340" x2="103" y2="345"/>
  <line x1="135" y1="340" x2="135" y2="345"/>
  <line x1="168" y1="340" x2="168" y2="345"/>
  <line x1="200" y1="340" x2="200" y2="345"/>
  <line x1="233" y1="340" x2="233" y2="345"/>
  <line x1="265" y1="340" x2="265" y2="345"/>
  <line x1="298" y1="340" x2="298" y2="345"/>
  <line x1="330" y1="340" x2="330" y2="345"/>
  <line x1="363" y1="340" x2="363" y2="345"/>
  <line x1="395" y1="340" x2="395" y2="345"/>
  <line x1="428" y1="340" x2="428" y2="345"/>
  <line x1="460" y1="340" x2="460" y2="345"/>
  <line x1="493" y1="340" x2="493" y2="345"/>
  <line x1="525" y1="340" x2="525" y2="345"/>
  <line x1="558" y1="340" x2="558" y2="345"/>
  <line x1="590" y1="340" x2="590" y2="345"/>
  <line x1="623" y1="340" x2="623" y2="345"/>
  <line x1="655" y1="340" x2="655" y2="345"/>
  <line x1="688" y1="340" x2="688" y2="345"/>
  <line x1="720" y1="340" x2="720" y2="345"/>
  <line x1="753" y1="340" x2="753" y2="345"/>
  <line x1="785" y1="340" x2="785" y2="345"/>
  <line x1="818" y1="340" x2="818" y2="345"/>
  <line x1="850" y1="340" x2="850" y2="345"/>
  <line x1="883" y1="340" x2="883" y2="345"/>
  <line x1="915" y1="340" x2="915" y2="345"/>
  <line x1="948" y1="340" x2="948" y2="345"/>
  <line x1="980" y1="340" x2="980" y2="345"/>
</g>

  <!-- 1) Business-data Analysis (thin band; varies; never 0) -->
  <path class="analysisFill"
        d="M70 340
           L70 300 107 298 144 295 181 290 218 290 255 288 292 285
           329 305 366 270 403 270 441 272 478 274 515 276 552 285
           589 300 626 270 663 285 700 280 738 280 775 280 812 282
           849 285 886 285 900 285 980 285
           L980 340 Z"/>
  <polyline class="analysisLine"
            points="70,300 107,298 144,295 181,290 218,290 255,288 292,285 329,305 366,270 403,270 441,272 478,274 515,276 552,285 589,300 626,270 663,285 700,280 738,280 775,280 812,282 849,285 886,285 900,285 980,285"/>

<!-- DEV (solid to 2021; dashed flat 2021→2025) -->
<path class="devFill"
      d="M70 340
         L70 167 103 167 135 167 168 167 200 167 233 167 265 167 298 167 330 167
         363 133 395 133 428 156 460 133 493 133 525 133 558 133 590 133
         623 179 655 179 688 133 720 133 753 110 785 110 818 110
         850 133 883 133 915 133 948 133 980 133
         L980 340 Z"/>
<polyline class="devLine"
          points="70,167 103,167 135,167 168,167 200,167 233,167 265,167 298,167 330,167
                  363,133 395,133 428,156 460,133 493,133 525,133 558,133 590,133
                  623,179 655,179 688,133 720,133 753,110 785,110 818,110 850,133"/>
<!-- dashed continuation at same y -->
<polyline class="devLine devDash"
          points="850,133 883,133 915,133 948,133 980,133"/>

<!-- DBA (ends exactly at 2021) -->
<path class="dbaFill"
      d="M70 340
         L70 340 103 340 135 340 168 340 200 340 233 340 265 340 298 180 330 180
         363 180 395 180 428 162 460 180 493 180 525 180 558 180 590 180
         623 340 655 304 688 304 720 180 753 180 785 180 818 180
         850 340
         L850 340 Z"/>
<polyline class="dbaLine"
          points="70,340 103,340 135,340 168,340 200,340 233,340 265,340 298,180 330,180
                  363,180 395,180 428,162 460,180 493,180 525,180 558,180 590,180
                  623,340 655,304 688,304 720,180 753,180 785,180 818,180 850,340"/>

<!-- ETL (ends exactly at 2021; Mellon strongest, OnePoint moderate, MeMD strong, Best IT moderate) -->
<path class="etlFill"
      d="M70 340
         L70 340 103 340 135 340 168 340
         200 250 233 250 265 250 298 250
         330 340 363 340 395 340 428 340
         460 303 493 303 525 303 558 303 590 303 623 303
         655 340 688 340
         720 260
         753 303 785 303 818 303
         850 340
         L850 340 Z"/>
<polyline class="etlLine"
          points="70,340 103,340 135,340 168,340
                  200,250 233,250 265,250 298,250
                  330,340 363,340 395,340 428,340
                  460,303 493,303 525,303 558,303 590,303 623,303
                  655,340 688,340
                  720,260
                  753,303 785,303 818,303
                  850,340"/>

  /* Line polish */
  .devLine,.dbaLine,.etlLine,.analysisLine{
    vector-effect: non-scaling-stroke;
    stroke-linejoin: round;
    stroke-linecap: round;
  }

  <!-- Legend (stacked, left) -->
  <g class="legend" transform="translate(66,34)">
    <rect x="-6" y="-6" width="270" height="92" rx="8" fill="rgba(0,0,0,.12)"/>
    <g transform="translate(10,10)">
      <rect x="0" y="0" width="14" height="14" class="devFill"/><text x="22" y="12">Dev (throughline; continues 2021–2025)</text>
      <rect x="0" y="24" width="14" height="14" class="dbaFill"/><text x="22" y="36">DBA (within Dev; through 2021)</text>
      <rect x="0" y="48" width="14" height="14" class="etlFill"/><text x="22" y="60">ETL (intermittent; through 2021)</text>
      <rect x="0" y="72"  width="14" height="14" class="analysisFill"/><text x="22" y="84">Business-data Analysis (varies; always &gt; 0)</text>
    </g>
  </g>

  <!-- Add near your other axis/tick labels -->
  <text class="tick axisTitle" x="520" y="382" text-anchor="middle">Year</text>

  <text class="tick axisTitle" x="26" y="205" text-anchor="middle"
      transform="rotate(-90 26 185)">Relative Time Focus</text>

  <!-- Annotation -->
  <!-- Dev dashed key: 3 tiny rectangles inline with the annotation baseline -->
  <g transform="translate(550,60)">
    <rect width="6" height="2" rx="1" fill="var(--color-accent-alt, #43A047)"/>
    <rect x="10" width="6" height="2" rx="1" fill="var(--color-accent-alt, #43A047)"/>
    <rect x="20" width="6" height="2" rx="1" fill="var(--color-accent-alt, #43A047)"/>
  </g>

  <text class="note" x="948" y="64" text-anchor="end">
    2021–Present: Independent Project Work (Dev &amp; Analysis maintained)
  </text>
</svg>
